<mxfile host="app.diagrams.net" modified="2023-09-16T20:16:32.926Z" agent="Mozilla/5.0 (Windows NT 10.0; Win64; x64) AppleWebKit/537.36 (KHTML, like Gecko) Chrome/116.0.0.0 Safari/537.36" etag="_H37z3xWpqACCOdUUbtG" version="21.7.5" type="device">
  <diagram name="Page-1" id="S7glXjw-zIXPG7JguVqP">
    <mxGraphModel dx="1434" dy="750" grid="1" gridSize="10" guides="1" tooltips="1" connect="1" arrows="1" fold="1" page="1" pageScale="1" pageWidth="850" pageHeight="1100" math="0" shadow="0">
      <root>
        <mxCell id="0" />
        <mxCell id="1" parent="0" />
        <mxCell id="ZufFL4hHmm5P7ahXTJik-2" value="External&lt;br&gt;&amp;nbsp;Users" style="sketch=0;outlineConnect=0;gradientColor=none;fontColor=#545B64;strokeColor=none;fillColor=#879196;dashed=0;verticalLabelPosition=bottom;verticalAlign=top;align=center;html=1;fontSize=12;fontStyle=0;aspect=fixed;shape=mxgraph.aws4.illustration_users;pointerEvents=1" vertex="1" parent="1">
          <mxGeometry x="40" y="310" width="40" height="40" as="geometry" />
        </mxCell>
        <mxCell id="ZufFL4hHmm5P7ahXTJik-6" value="" style="shape=image;html=1;verticalAlign=top;verticalLabelPosition=bottom;labelBackgroundColor=#ffffff;imageAspect=0;aspect=fixed;image=https://cdn0.iconfinder.com/data/icons/devices-42/512/Macbook-128.png" vertex="1" parent="1">
          <mxGeometry x="40" y="194.5" width="48.5" height="48.5" as="geometry" />
        </mxCell>
        <mxCell id="ZufFL4hHmm5P7ahXTJik-7" value="Amazon Route&lt;br&gt;S3" style="outlineConnect=0;dashed=0;verticalLabelPosition=bottom;verticalAlign=top;align=center;html=1;shape=mxgraph.aws3.route_53;fillColor=#F58536;gradientColor=none;" vertex="1" parent="1">
          <mxGeometry x="122.25" y="308.13" width="35.5" height="45.5" as="geometry" />
        </mxCell>
        <mxCell id="ZufFL4hHmm5P7ahXTJik-8" value="CloudFront" style="outlineConnect=0;dashed=0;verticalLabelPosition=bottom;verticalAlign=top;align=center;html=1;shape=mxgraph.aws3.cloudfront;fillColor=#F58536;gradientColor=none;" vertex="1" parent="1">
          <mxGeometry x="208.75" y="306.25" width="36.5" height="49.25" as="geometry" />
        </mxCell>
        <mxCell id="ZufFL4hHmm5P7ahXTJik-11" value="" style="rounded=0;arcSize=10;dashed=1;fillColor=none;gradientColor=none;dashPattern=1 1;strokeWidth=2;glass=1;shadow=0;" vertex="1" parent="1">
          <mxGeometry x="228" y="40" width="1422" height="640" as="geometry" />
        </mxCell>
        <mxCell id="ZufFL4hHmm5P7ahXTJik-12" value="" style="outlineConnect=0;dashed=0;verticalLabelPosition=bottom;verticalAlign=top;align=center;html=1;shape=mxgraph.aws3.cloud_2;fillColor=#F58534;gradientColor=none;" vertex="1" parent="1">
          <mxGeometry x="204" y="20" width="50" height="45" as="geometry" />
        </mxCell>
        <mxCell id="ZufFL4hHmm5P7ahXTJik-14" value="Amazon S3" style="sketch=0;outlineConnect=0;fontColor=#232F3E;gradientColor=none;fillColor=#7AA116;strokeColor=none;dashed=0;verticalLabelPosition=bottom;verticalAlign=top;align=center;html=1;fontSize=12;fontStyle=0;aspect=fixed;pointerEvents=1;shape=mxgraph.aws4.bucket_with_objects;" vertex="1" parent="1">
          <mxGeometry x="260" y="440" width="38.46" height="40" as="geometry" />
        </mxCell>
        <mxCell id="ZufFL4hHmm5P7ahXTJik-15" value="API Gateway" style="outlineConnect=0;dashed=0;verticalLabelPosition=bottom;verticalAlign=top;align=center;html=1;shape=mxgraph.aws3.api_gateway;fillColor=#D9A741;gradientColor=none;" vertex="1" parent="1">
          <mxGeometry x="330" y="306.62" width="30" height="50.88" as="geometry" />
        </mxCell>
        <mxCell id="ZufFL4hHmm5P7ahXTJik-16" value="VPC" style="sketch=0;outlineConnect=0;gradientColor=none;html=1;whiteSpace=wrap;fontSize=12;fontStyle=0;shape=mxgraph.aws4.group;grIcon=mxgraph.aws4.group_vpc;strokeColor=#879196;fillColor=none;verticalAlign=top;align=left;spacingLeft=30;fontColor=#879196;dashed=0;" vertex="1" parent="1">
          <mxGeometry x="443" y="80" width="1087" height="510" as="geometry" />
        </mxCell>
        <mxCell id="ZufFL4hHmm5P7ahXTJik-17" value="Internet Gateway" style="outlineConnect=0;dashed=0;verticalLabelPosition=bottom;verticalAlign=top;align=center;html=1;shape=mxgraph.aws3.internet_gateway;fillColor=#F58534;gradientColor=none;" vertex="1" parent="1">
          <mxGeometry x="420" y="310" width="40" height="40" as="geometry" />
        </mxCell>
        <mxCell id="ZufFL4hHmm5P7ahXTJik-25" value="" style="rounded=1;arcSize=10;dashed=1;strokeColor=#F59D56;fillColor=none;gradientColor=none;dashPattern=8 4;strokeWidth=2;" vertex="1" parent="1">
          <mxGeometry x="516" y="90" width="1004" height="200" as="geometry" />
        </mxCell>
        <mxCell id="ZufFL4hHmm5P7ahXTJik-28" value="Private subnet" style="points=[[0,0],[0.25,0],[0.5,0],[0.75,0],[1,0],[1,0.25],[1,0.5],[1,0.75],[1,1],[0.75,1],[0.5,1],[0.25,1],[0,1],[0,0.75],[0,0.5],[0,0.25]];outlineConnect=0;gradientColor=none;html=1;whiteSpace=wrap;fontSize=12;fontStyle=0;container=1;pointerEvents=0;collapsible=0;recursiveResize=0;shape=mxgraph.aws4.group;grIcon=mxgraph.aws4.group_security_group;grStroke=0;strokeColor=#147EBA;fillColor=#E6F2F8;verticalAlign=top;align=left;spacingLeft=30;fontColor=#147EBA;dashed=0;" vertex="1" parent="1">
          <mxGeometry x="731" y="124" width="769" height="156" as="geometry" />
        </mxCell>
        <mxCell id="ZufFL4hHmm5P7ahXTJik-29" value="Amazon ECS" style="outlineConnect=0;dashed=0;verticalLabelPosition=bottom;verticalAlign=top;align=center;html=1;shape=mxgraph.aws3.ecs;fillColor=#F58534;gradientColor=none;" vertex="1" parent="ZufFL4hHmm5P7ahXTJik-28">
          <mxGeometry x="209" width="30" height="25" as="geometry" />
        </mxCell>
        <mxCell id="ZufFL4hHmm5P7ahXTJik-32" value="Auto Scaling group" style="points=[[0,0],[0.25,0],[0.5,0],[0.75,0],[1,0],[1,0.25],[1,0.5],[1,0.75],[1,1],[0.75,1],[0.5,1],[0.25,1],[0,1],[0,0.75],[0,0.5],[0,0.25]];outlineConnect=0;gradientColor=none;html=1;whiteSpace=wrap;fontSize=12;fontStyle=0;container=1;pointerEvents=0;collapsible=0;recursiveResize=0;shape=mxgraph.aws4.groupCenter;grIcon=mxgraph.aws4.group_auto_scaling_group;grStroke=1;strokeColor=#D86613;fillColor=none;verticalAlign=top;align=center;fontColor=#D86613;dashed=1;spacingTop=25;" vertex="1" parent="ZufFL4hHmm5P7ahXTJik-28">
          <mxGeometry x="150" y="50" width="140" height="95" as="geometry" />
        </mxCell>
        <mxCell id="ZufFL4hHmm5P7ahXTJik-33" value="" style="sketch=0;outlineConnect=0;fontColor=#232F3E;gradientColor=none;fillColor=#ED7100;strokeColor=none;dashed=0;verticalLabelPosition=bottom;verticalAlign=top;align=center;html=1;fontSize=12;fontStyle=0;aspect=fixed;pointerEvents=1;shape=mxgraph.aws4.container_1;" vertex="1" parent="ZufFL4hHmm5P7ahXTJik-32">
          <mxGeometry x="10" y="47.67" width="28" height="18.08" as="geometry" />
        </mxCell>
        <mxCell id="ZufFL4hHmm5P7ahXTJik-34" value="" style="sketch=0;outlineConnect=0;fontColor=#232F3E;gradientColor=none;fillColor=#ED7100;strokeColor=none;dashed=0;verticalLabelPosition=bottom;verticalAlign=top;align=center;html=1;fontSize=12;fontStyle=0;aspect=fixed;pointerEvents=1;shape=mxgraph.aws4.container_1;" vertex="1" parent="ZufFL4hHmm5P7ahXTJik-32">
          <mxGeometry x="50" y="46.71000000000001" width="28" height="18.08" as="geometry" />
        </mxCell>
        <mxCell id="ZufFL4hHmm5P7ahXTJik-35" value="" style="sketch=0;outlineConnect=0;fontColor=#232F3E;gradientColor=none;fillColor=#ED7100;strokeColor=none;dashed=0;verticalLabelPosition=bottom;verticalAlign=top;align=center;html=1;fontSize=12;fontStyle=0;aspect=fixed;pointerEvents=1;shape=mxgraph.aws4.container_1;" vertex="1" parent="ZufFL4hHmm5P7ahXTJik-32">
          <mxGeometry x="90" y="46.71000000000001" width="28" height="18.08" as="geometry" />
        </mxCell>
        <mxCell id="ZufFL4hHmm5P7ahXTJik-36" value="" style="sketch=0;outlineConnect=0;fontColor=#232F3E;gradientColor=none;fillColor=#ED7100;strokeColor=none;dashed=0;verticalLabelPosition=bottom;verticalAlign=top;align=center;html=1;fontSize=12;fontStyle=0;aspect=fixed;pointerEvents=1;shape=mxgraph.aws4.container_1;" vertex="1" parent="ZufFL4hHmm5P7ahXTJik-32">
          <mxGeometry x="10" y="70.91999999999999" width="28" height="18.08" as="geometry" />
        </mxCell>
        <mxCell id="ZufFL4hHmm5P7ahXTJik-37" value="" style="sketch=0;outlineConnect=0;fontColor=#232F3E;gradientColor=none;fillColor=#ED7100;strokeColor=none;dashed=0;verticalLabelPosition=bottom;verticalAlign=top;align=center;html=1;fontSize=12;fontStyle=0;aspect=fixed;pointerEvents=1;shape=mxgraph.aws4.container_1;" vertex="1" parent="ZufFL4hHmm5P7ahXTJik-32">
          <mxGeometry x="90" y="70.91999999999999" width="28" height="18.08" as="geometry" />
        </mxCell>
        <mxCell id="ZufFL4hHmm5P7ahXTJik-38" value="" style="sketch=0;outlineConnect=0;fontColor=#232F3E;gradientColor=none;fillColor=#ED7100;strokeColor=none;dashed=0;verticalLabelPosition=bottom;verticalAlign=top;align=center;html=1;fontSize=12;fontStyle=0;aspect=fixed;pointerEvents=1;shape=mxgraph.aws4.container_1;" vertex="1" parent="ZufFL4hHmm5P7ahXTJik-32">
          <mxGeometry x="50" y="70.91999999999999" width="28" height="18.08" as="geometry" />
        </mxCell>
        <mxCell id="ZufFL4hHmm5P7ahXTJik-39" value="Redis Cache" style="outlineConnect=0;dashed=0;verticalLabelPosition=bottom;verticalAlign=top;align=center;html=1;shape=mxgraph.aws3.redis;fillColor=#2E73B8;gradientColor=none;" vertex="1" parent="ZufFL4hHmm5P7ahXTJik-28">
          <mxGeometry x="369" y="45.5" width="50" height="52" as="geometry" />
        </mxCell>
        <mxCell id="ZufFL4hHmm5P7ahXTJik-40" value="Aurora DB" style="sketch=0;points=[[0,0,0],[0.25,0,0],[0.5,0,0],[0.75,0,0],[1,0,0],[0,1,0],[0.25,1,0],[0.5,1,0],[0.75,1,0],[1,1,0],[0,0.25,0],[0,0.5,0],[0,0.75,0],[1,0.25,0],[1,0.5,0],[1,0.75,0]];outlineConnect=0;fontColor=#232F3E;fillColor=#C925D1;strokeColor=#ffffff;dashed=0;verticalLabelPosition=bottom;verticalAlign=top;align=center;html=1;fontSize=12;fontStyle=0;aspect=fixed;shape=mxgraph.aws4.resourceIcon;resIcon=mxgraph.aws4.aurora;" vertex="1" parent="ZufFL4hHmm5P7ahXTJik-28">
          <mxGeometry x="509" y="44" width="55" height="55" as="geometry" />
        </mxCell>
        <mxCell id="ZufFL4hHmm5P7ahXTJik-41" value="Neptune DB" style="sketch=0;points=[[0,0,0],[0.25,0,0],[0.5,0,0],[0.75,0,0],[1,0,0],[0,1,0],[0.25,1,0],[0.5,1,0],[0.75,1,0],[1,1,0],[0,0.25,0],[0,0.5,0],[0,0.75,0],[1,0.25,0],[1,0.5,0],[1,0.75,0]];outlineConnect=0;fontColor=#232F3E;fillColor=#C925D1;strokeColor=#ffffff;dashed=0;verticalLabelPosition=bottom;verticalAlign=top;align=center;html=1;fontSize=12;fontStyle=0;aspect=fixed;shape=mxgraph.aws4.resourceIcon;resIcon=mxgraph.aws4.neptune;" vertex="1" parent="ZufFL4hHmm5P7ahXTJik-28">
          <mxGeometry x="675" y="39.5" width="56.5" height="56.5" as="geometry" />
        </mxCell>
        <mxCell id="ZufFL4hHmm5P7ahXTJik-88" value="" style="edgeStyle=orthogonalEdgeStyle;html=1;endArrow=block;elbow=vertical;startArrow=none;endFill=1;strokeColor=#545B64;rounded=0;entryX=-0.011;entryY=0.156;entryDx=0;entryDy=0;entryPerimeter=0;" edge="1" parent="ZufFL4hHmm5P7ahXTJik-28" target="ZufFL4hHmm5P7ahXTJik-66">
          <mxGeometry width="100" relative="1" as="geometry">
            <mxPoint x="299" y="86" as="sourcePoint" />
            <mxPoint x="399" y="86" as="targetPoint" />
          </mxGeometry>
        </mxCell>
        <mxCell id="ZufFL4hHmm5P7ahXTJik-26" value="Public subnet" style="points=[[0,0],[0.25,0],[0.5,0],[0.75,0],[1,0],[1,0.25],[1,0.5],[1,0.75],[1,1],[0.75,1],[0.5,1],[0.25,1],[0,1],[0,0.75],[0,0.5],[0,0.25]];outlineConnect=0;gradientColor=none;html=1;whiteSpace=wrap;fontSize=12;fontStyle=0;container=1;pointerEvents=0;collapsible=0;recursiveResize=0;shape=mxgraph.aws4.group;grIcon=mxgraph.aws4.group_security_group;grStroke=0;strokeColor=#248814;fillColor=#E9F3E6;verticalAlign=top;align=left;spacingLeft=30;fontColor=#248814;dashed=0;" vertex="1" parent="1">
          <mxGeometry x="551" y="126" width="130" height="145" as="geometry" />
        </mxCell>
        <mxCell id="ZufFL4hHmm5P7ahXTJik-27" value="NAT Gateway" style="outlineConnect=0;dashed=0;verticalLabelPosition=bottom;verticalAlign=top;align=center;html=1;shape=mxgraph.aws3.vpc_nat_gateway;fillColor=#F58534;gradientColor=none;" vertex="1" parent="ZufFL4hHmm5P7ahXTJik-26">
          <mxGeometry x="40" y="44.5" width="42.5" height="51" as="geometry" />
        </mxCell>
        <mxCell id="ZufFL4hHmm5P7ahXTJik-30" value="Fargate" style="sketch=0;points=[[0,0,0],[0.25,0,0],[0.5,0,0],[0.75,0,0],[1,0,0],[0,1,0],[0.25,1,0],[0.5,1,0],[0.75,1,0],[1,1,0],[0,0.25,0],[0,0.5,0],[0,0.75,0],[1,0.25,0],[1,0.5,0],[1,0.75,0]];outlineConnect=0;fontColor=#232F3E;fillColor=#ED7100;strokeColor=#ffffff;dashed=0;verticalLabelPosition=bottom;verticalAlign=top;align=center;html=1;fontSize=12;fontStyle=0;aspect=fixed;shape=mxgraph.aws4.resourceIcon;resIcon=mxgraph.aws4.fargate;" vertex="1" parent="1">
          <mxGeometry x="927" y="306" width="38" height="38" as="geometry" />
        </mxCell>
        <mxCell id="ZufFL4hHmm5P7ahXTJik-42" value="" style="rounded=1;arcSize=10;dashed=1;strokeColor=#F59D56;fillColor=none;gradientColor=none;dashPattern=8 4;strokeWidth=2;" vertex="1" parent="1">
          <mxGeometry x="514" y="370" width="1006" height="200" as="geometry" />
        </mxCell>
        <mxCell id="ZufFL4hHmm5P7ahXTJik-43" value="Public subnet" style="points=[[0,0],[0.25,0],[0.5,0],[0.75,0],[1,0],[1,0.25],[1,0.5],[1,0.75],[1,1],[0.75,1],[0.5,1],[0.25,1],[0,1],[0,0.75],[0,0.5],[0,0.25]];outlineConnect=0;gradientColor=none;html=1;whiteSpace=wrap;fontSize=12;fontStyle=0;container=1;pointerEvents=0;collapsible=0;recursiveResize=0;shape=mxgraph.aws4.group;grIcon=mxgraph.aws4.group_security_group;grStroke=0;strokeColor=#248814;fillColor=#E9F3E6;verticalAlign=top;align=left;spacingLeft=30;fontColor=#248814;dashed=0;" vertex="1" parent="1">
          <mxGeometry x="550" y="396.5" width="130" height="145" as="geometry" />
        </mxCell>
        <mxCell id="ZufFL4hHmm5P7ahXTJik-44" value="NAT Gateway" style="outlineConnect=0;dashed=0;verticalLabelPosition=bottom;verticalAlign=top;align=center;html=1;shape=mxgraph.aws3.vpc_nat_gateway;fillColor=#F58534;gradientColor=none;" vertex="1" parent="ZufFL4hHmm5P7ahXTJik-43">
          <mxGeometry x="40" y="44.5" width="42.5" height="51" as="geometry" />
        </mxCell>
        <mxCell id="ZufFL4hHmm5P7ahXTJik-105" value="" style="edgeStyle=orthogonalEdgeStyle;html=1;endArrow=none;elbow=vertical;startArrow=block;startFill=1;strokeColor=#545B64;rounded=0;entryX=-0.029;entryY=0.803;entryDx=0;entryDy=0;entryPerimeter=0;" edge="1" parent="ZufFL4hHmm5P7ahXTJik-43" target="ZufFL4hHmm5P7ahXTJik-67">
          <mxGeometry width="100" relative="1" as="geometry">
            <mxPoint x="80" y="73.5" as="sourcePoint" />
            <mxPoint x="180" y="73.5" as="targetPoint" />
          </mxGeometry>
        </mxCell>
        <mxCell id="ZufFL4hHmm5P7ahXTJik-45" value="Private subnet" style="points=[[0,0],[0.25,0],[0.5,0],[0.75,0],[1,0],[1,0.25],[1,0.5],[1,0.75],[1,1],[0.75,1],[0.5,1],[0.25,1],[0,1],[0,0.75],[0,0.5],[0,0.25]];outlineConnect=0;gradientColor=none;html=1;whiteSpace=wrap;fontSize=12;fontStyle=0;container=1;pointerEvents=0;collapsible=0;recursiveResize=0;shape=mxgraph.aws4.group;grIcon=mxgraph.aws4.group_security_group;grStroke=0;strokeColor=#147EBA;fillColor=#E6F2F8;verticalAlign=top;align=left;spacingLeft=30;fontColor=#147EBA;dashed=0;" vertex="1" parent="1">
          <mxGeometry x="730" y="394.5" width="770" height="157.5" as="geometry" />
        </mxCell>
        <mxCell id="ZufFL4hHmm5P7ahXTJik-46" value="Amazon ECS" style="outlineConnect=0;dashed=0;verticalLabelPosition=bottom;verticalAlign=top;align=center;html=1;shape=mxgraph.aws3.ecs;fillColor=#F58534;gradientColor=none;" vertex="1" parent="ZufFL4hHmm5P7ahXTJik-45">
          <mxGeometry x="198" width="30" height="25" as="geometry" />
        </mxCell>
        <mxCell id="ZufFL4hHmm5P7ahXTJik-47" value="Auto Scaling group" style="points=[[0,0],[0.25,0],[0.5,0],[0.75,0],[1,0],[1,0.25],[1,0.5],[1,0.75],[1,1],[0.75,1],[0.5,1],[0.25,1],[0,1],[0,0.75],[0,0.5],[0,0.25]];outlineConnect=0;gradientColor=none;html=1;whiteSpace=wrap;fontSize=12;fontStyle=0;container=1;pointerEvents=0;collapsible=0;recursiveResize=0;shape=mxgraph.aws4.groupCenter;grIcon=mxgraph.aws4.group_auto_scaling_group;grStroke=1;strokeColor=#D86613;fillColor=none;verticalAlign=top;align=center;fontColor=#D86613;dashed=1;spacingTop=25;" vertex="1" parent="ZufFL4hHmm5P7ahXTJik-45">
          <mxGeometry x="144" y="50" width="140" height="95.00000000000001" as="geometry" />
        </mxCell>
        <mxCell id="ZufFL4hHmm5P7ahXTJik-48" value="" style="sketch=0;outlineConnect=0;fontColor=#232F3E;gradientColor=none;fillColor=#ED7100;strokeColor=none;dashed=0;verticalLabelPosition=bottom;verticalAlign=top;align=center;html=1;fontSize=12;fontStyle=0;aspect=fixed;pointerEvents=1;shape=mxgraph.aws4.container_1;" vertex="1" parent="ZufFL4hHmm5P7ahXTJik-47">
          <mxGeometry x="10" y="47.67" width="28" height="18.08" as="geometry" />
        </mxCell>
        <mxCell id="ZufFL4hHmm5P7ahXTJik-49" value="" style="sketch=0;outlineConnect=0;fontColor=#232F3E;gradientColor=none;fillColor=#ED7100;strokeColor=none;dashed=0;verticalLabelPosition=bottom;verticalAlign=top;align=center;html=1;fontSize=12;fontStyle=0;aspect=fixed;pointerEvents=1;shape=mxgraph.aws4.container_1;" vertex="1" parent="ZufFL4hHmm5P7ahXTJik-47">
          <mxGeometry x="50" y="46.71000000000001" width="28" height="18.08" as="geometry" />
        </mxCell>
        <mxCell id="ZufFL4hHmm5P7ahXTJik-50" value="" style="sketch=0;outlineConnect=0;fontColor=#232F3E;gradientColor=none;fillColor=#ED7100;strokeColor=none;dashed=0;verticalLabelPosition=bottom;verticalAlign=top;align=center;html=1;fontSize=12;fontStyle=0;aspect=fixed;pointerEvents=1;shape=mxgraph.aws4.container_1;" vertex="1" parent="ZufFL4hHmm5P7ahXTJik-47">
          <mxGeometry x="90" y="46.71000000000001" width="28" height="18.08" as="geometry" />
        </mxCell>
        <mxCell id="ZufFL4hHmm5P7ahXTJik-57" value="" style="sketch=0;outlineConnect=0;fontColor=#232F3E;gradientColor=none;fillColor=#ED7100;strokeColor=none;dashed=0;verticalLabelPosition=bottom;verticalAlign=top;align=center;html=1;fontSize=12;fontStyle=0;aspect=fixed;pointerEvents=1;shape=mxgraph.aws4.container_1;" vertex="1" parent="ZufFL4hHmm5P7ahXTJik-47">
          <mxGeometry x="10" y="71.92000000000002" width="28" height="18.08" as="geometry" />
        </mxCell>
        <mxCell id="ZufFL4hHmm5P7ahXTJik-58" value="" style="sketch=0;outlineConnect=0;fontColor=#232F3E;gradientColor=none;fillColor=#ED7100;strokeColor=none;dashed=0;verticalLabelPosition=bottom;verticalAlign=top;align=center;html=1;fontSize=12;fontStyle=0;aspect=fixed;pointerEvents=1;shape=mxgraph.aws4.container_1;" vertex="1" parent="ZufFL4hHmm5P7ahXTJik-47">
          <mxGeometry x="50" y="71.92000000000002" width="28" height="18.08" as="geometry" />
        </mxCell>
        <mxCell id="ZufFL4hHmm5P7ahXTJik-59" value="" style="sketch=0;outlineConnect=0;fontColor=#232F3E;gradientColor=none;fillColor=#ED7100;strokeColor=none;dashed=0;verticalLabelPosition=bottom;verticalAlign=top;align=center;html=1;fontSize=12;fontStyle=0;aspect=fixed;pointerEvents=1;shape=mxgraph.aws4.container_1;" vertex="1" parent="ZufFL4hHmm5P7ahXTJik-47">
          <mxGeometry x="90" y="71.92000000000002" width="28" height="18.08" as="geometry" />
        </mxCell>
        <mxCell id="ZufFL4hHmm5P7ahXTJik-51" value="Redis Cache" style="outlineConnect=0;dashed=0;verticalLabelPosition=bottom;verticalAlign=top;align=center;html=1;shape=mxgraph.aws3.redis;fillColor=#2E73B8;gradientColor=none;" vertex="1" parent="ZufFL4hHmm5P7ahXTJik-45">
          <mxGeometry x="370" y="44.25" width="50" height="52" as="geometry" />
        </mxCell>
        <mxCell id="ZufFL4hHmm5P7ahXTJik-52" value="Aurora DB" style="sketch=0;points=[[0,0,0],[0.25,0,0],[0.5,0,0],[0.75,0,0],[1,0,0],[0,1,0],[0.25,1,0],[0.5,1,0],[0.75,1,0],[1,1,0],[0,0.25,0],[0,0.5,0],[0,0.75,0],[1,0.25,0],[1,0.5,0],[1,0.75,0]];outlineConnect=0;fontColor=#232F3E;fillColor=#C925D1;strokeColor=#ffffff;dashed=0;verticalLabelPosition=bottom;verticalAlign=top;align=center;html=1;fontSize=12;fontStyle=0;aspect=fixed;shape=mxgraph.aws4.resourceIcon;resIcon=mxgraph.aws4.aurora;" vertex="1" parent="ZufFL4hHmm5P7ahXTJik-45">
          <mxGeometry x="510" y="42.75" width="55" height="55" as="geometry" />
        </mxCell>
        <mxCell id="ZufFL4hHmm5P7ahXTJik-53" value="Neptune DB" style="sketch=0;points=[[0,0,0],[0.25,0,0],[0.5,0,0],[0.75,0,0],[1,0,0],[0,1,0],[0.25,1,0],[0.5,1,0],[0.75,1,0],[1,1,0],[0,0.25,0],[0,0.5,0],[0,0.75,0],[1,0.25,0],[1,0.5,0],[1,0.75,0]];outlineConnect=0;fontColor=#232F3E;fillColor=#C925D1;strokeColor=#ffffff;dashed=0;verticalLabelPosition=bottom;verticalAlign=top;align=center;html=1;fontSize=12;fontStyle=0;aspect=fixed;shape=mxgraph.aws4.resourceIcon;resIcon=mxgraph.aws4.neptune;" vertex="1" parent="ZufFL4hHmm5P7ahXTJik-45">
          <mxGeometry x="676" y="40.5" width="56.5" height="56.5" as="geometry" />
        </mxCell>
        <mxCell id="ZufFL4hHmm5P7ahXTJik-89" value="" style="edgeStyle=orthogonalEdgeStyle;html=1;endArrow=block;elbow=vertical;startArrow=none;endFill=1;strokeColor=#545B64;rounded=0;entryX=0;entryY=0.154;entryDx=0;entryDy=0;entryPerimeter=0;" edge="1" parent="ZufFL4hHmm5P7ahXTJik-45" target="ZufFL4hHmm5P7ahXTJik-66">
          <mxGeometry width="100" relative="1" as="geometry">
            <mxPoint x="300" y="75.5" as="sourcePoint" />
            <mxPoint x="400" y="75.5" as="targetPoint" />
          </mxGeometry>
        </mxCell>
        <mxCell id="ZufFL4hHmm5P7ahXTJik-90" value="" style="edgeStyle=orthogonalEdgeStyle;html=1;endArrow=block;elbow=vertical;startArrow=none;endFill=1;strokeColor=#545B64;rounded=0;entryX=-0.022;entryY=0.162;entryDx=0;entryDy=0;entryPerimeter=0;" edge="1" parent="ZufFL4hHmm5P7ahXTJik-45" target="ZufFL4hHmm5P7ahXTJik-70">
          <mxGeometry width="100" relative="1" as="geometry">
            <mxPoint x="325" y="-71.5" as="sourcePoint" />
            <mxPoint x="425" y="-71.5" as="targetPoint" />
            <Array as="points">
              <mxPoint x="460" y="-71" />
              <mxPoint x="460" y="-181" />
            </Array>
          </mxGeometry>
        </mxCell>
        <mxCell id="ZufFL4hHmm5P7ahXTJik-91" value="" style="edgeStyle=orthogonalEdgeStyle;html=1;endArrow=block;elbow=vertical;startArrow=none;endFill=1;strokeColor=#545B64;rounded=0;entryX=-0.022;entryY=0.818;entryDx=0;entryDy=0;entryPerimeter=0;" edge="1" parent="ZufFL4hHmm5P7ahXTJik-45" target="ZufFL4hHmm5P7ahXTJik-70">
          <mxGeometry width="100" relative="1" as="geometry">
            <mxPoint x="329" y="-71.5" as="sourcePoint" />
            <mxPoint x="429" y="-71.5" as="targetPoint" />
            <Array as="points">
              <mxPoint x="460" y="-71" />
              <mxPoint x="460" y="75" />
            </Array>
          </mxGeometry>
        </mxCell>
        <mxCell id="ZufFL4hHmm5P7ahXTJik-54" value="API Data Stream" style="sketch=0;points=[[0,0,0],[0.25,0,0],[0.5,0,0],[0.75,0,0],[1,0,0],[0,1,0],[0.25,1,0],[0.5,1,0],[0.75,1,0],[1,1,0],[0,0.25,0],[0,0.5,0],[0,0.75,0],[1,0.25,0],[1,0.5,0],[1,0.75,0]];outlineConnect=0;fontColor=#232F3E;fillColor=#8C4FFF;strokeColor=#ffffff;dashed=0;verticalLabelPosition=bottom;verticalAlign=top;align=center;html=1;fontSize=12;fontStyle=0;aspect=fixed;shape=mxgraph.aws4.resourceIcon;resIcon=mxgraph.aws4.kinesis_data_streams;" vertex="1" parent="1">
          <mxGeometry x="590" y="307.75" width="38" height="38" as="geometry" />
        </mxCell>
        <mxCell id="ZufFL4hHmm5P7ahXTJik-56" value="NLB" style="outlineConnect=0;dashed=0;verticalLabelPosition=bottom;verticalAlign=top;align=center;html=1;shape=mxgraph.aws3.application_load_balancer;fillColor=#F58536;gradientColor=none;" vertex="1" parent="1">
          <mxGeometry x="766" y="301" width="40" height="46" as="geometry" />
        </mxCell>
        <mxCell id="ZufFL4hHmm5P7ahXTJik-60" value="IAM" style="sketch=0;points=[[0,0,0],[0.25,0,0],[0.5,0,0],[0.75,0,0],[1,0,0],[0,1,0],[0.25,1,0],[0.5,1,0],[0.75,1,0],[1,1,0],[0,0.25,0],[0,0.5,0],[0,0.75,0],[1,0.25,0],[1,0.5,0],[1,0.75,0]];outlineConnect=0;fontColor=#232F3E;fillColor=#DD344C;strokeColor=#ffffff;dashed=0;verticalLabelPosition=bottom;verticalAlign=top;align=center;html=1;fontSize=12;fontStyle=0;aspect=fixed;shape=mxgraph.aws4.resourceIcon;resIcon=mxgraph.aws4.identity_and_access_management;" vertex="1" parent="1">
          <mxGeometry x="321" y="165" width="48" height="48" as="geometry" />
        </mxCell>
        <mxCell id="ZufFL4hHmm5P7ahXTJik-77" value="" style="edgeStyle=orthogonalEdgeStyle;rounded=0;orthogonalLoop=1;jettySize=auto;html=1;" edge="1" parent="1" source="ZufFL4hHmm5P7ahXTJik-61" target="ZufFL4hHmm5P7ahXTJik-67">
          <mxGeometry relative="1" as="geometry" />
        </mxCell>
        <mxCell id="ZufFL4hHmm5P7ahXTJik-61" value="Amazon ECR" style="outlineConnect=0;dashed=0;verticalLabelPosition=bottom;verticalAlign=top;align=center;html=1;shape=mxgraph.aws3.ecr;fillColor=#F58534;gradientColor=none;" vertex="1" parent="1">
          <mxGeometry x="921" y="600" width="47" height="52" as="geometry" />
        </mxCell>
        <mxCell id="ZufFL4hHmm5P7ahXTJik-62" value="Cloud Watch" style="outlineConnect=0;dashed=0;verticalLabelPosition=bottom;verticalAlign=top;align=center;html=1;shape=mxgraph.aws3.cloudwatch;fillColor=#759C3E;gradientColor=none;" vertex="1" parent="1">
          <mxGeometry x="1566" y="294" width="50" height="60" as="geometry" />
        </mxCell>
        <mxCell id="ZufFL4hHmm5P7ahXTJik-65" value="" style="rounded=1;arcSize=10;dashed=1;fillColor=none;gradientColor=none;dashPattern=1 1;strokeWidth=2;strokeColor=#FFC38F;" vertex="1" parent="1">
          <mxGeometry x="750" y="260" width="70" height="170" as="geometry" />
        </mxCell>
        <mxCell id="ZufFL4hHmm5P7ahXTJik-66" value="" style="rounded=1;arcSize=10;dashed=1;fillColor=none;gradientColor=none;dashPattern=1 1;strokeWidth=2;strokeColor=#FFC38F;" vertex="1" parent="1">
          <mxGeometry x="1080" y="150" width="90" height="390" as="geometry" />
        </mxCell>
        <mxCell id="ZufFL4hHmm5P7ahXTJik-67" value="" style="rounded=1;arcSize=10;dashed=1;fillColor=none;gradientColor=none;dashPattern=1 1;strokeWidth=2;strokeColor=#FFC38F;" vertex="1" parent="1">
          <mxGeometry x="860" y="150" width="170" height="400" as="geometry" />
        </mxCell>
        <mxCell id="ZufFL4hHmm5P7ahXTJik-70" value="" style="rounded=1;arcSize=10;dashed=1;fillColor=none;gradientColor=none;dashPattern=1 1;strokeWidth=2;strokeColor=#FFC38F;" vertex="1" parent="1">
          <mxGeometry x="1220" y="150" width="90" height="390" as="geometry" />
        </mxCell>
        <mxCell id="ZufFL4hHmm5P7ahXTJik-71" value="" style="rounded=1;arcSize=10;dashed=1;fillColor=none;gradientColor=none;dashPattern=1 1;strokeWidth=2;strokeColor=#FFC38F;" vertex="1" parent="1">
          <mxGeometry x="1390" y="151.5" width="90" height="390" as="geometry" />
        </mxCell>
        <mxCell id="ZufFL4hHmm5P7ahXTJik-72" value="Availability Zone A" style="text;strokeColor=none;fillColor=none;html=1;fontSize=17;fontStyle=0;verticalAlign=middle;align=center;fontColor=#e58c10;" vertex="1" parent="1">
          <mxGeometry x="930" y="100" width="80" height="20" as="geometry" />
        </mxCell>
        <mxCell id="ZufFL4hHmm5P7ahXTJik-73" value="Availability Zone B" style="text;strokeColor=none;fillColor=none;html=1;fontSize=17;fontStyle=0;verticalAlign=middle;align=center;fontColor=#e58c10;" vertex="1" parent="1">
          <mxGeometry x="940" y="375" width="80" height="20" as="geometry" />
        </mxCell>
        <mxCell id="ZufFL4hHmm5P7ahXTJik-79" value="" style="edgeStyle=orthogonalEdgeStyle;html=1;endArrow=block;elbow=vertical;startArrow=block;startFill=1;endFill=1;strokeColor=#369fd3;rounded=0;entryX=0.29;entryY=0.5;entryDx=0;entryDy=0;entryPerimeter=0;fontColor=#37a7c3;" edge="1" parent="1" source="ZufFL4hHmm5P7ahXTJik-2" target="ZufFL4hHmm5P7ahXTJik-7">
          <mxGeometry width="100" relative="1" as="geometry">
            <mxPoint x="140" y="240" as="sourcePoint" />
            <mxPoint x="240" y="240" as="targetPoint" />
          </mxGeometry>
        </mxCell>
        <mxCell id="ZufFL4hHmm5P7ahXTJik-80" value="" style="edgeStyle=orthogonalEdgeStyle;html=1;endArrow=block;elbow=vertical;startArrow=block;startFill=1;endFill=1;strokeColor=#58a6b6;rounded=0;" edge="1" parent="1">
          <mxGeometry width="100" relative="1" as="geometry">
            <mxPoint x="150" y="330" as="sourcePoint" />
            <mxPoint x="210" y="330" as="targetPoint" />
          </mxGeometry>
        </mxCell>
        <mxCell id="ZufFL4hHmm5P7ahXTJik-81" value="" style="edgeStyle=orthogonalEdgeStyle;html=1;endArrow=block;elbow=vertical;startArrow=none;endFill=1;strokeColor=#545B64;rounded=0;entryX=0;entryY=0.5;entryDx=0;entryDy=0;entryPerimeter=0;" edge="1" parent="1" target="ZufFL4hHmm5P7ahXTJik-17">
          <mxGeometry width="100" relative="1" as="geometry">
            <mxPoint x="240" y="330" as="sourcePoint" />
            <mxPoint x="340" y="330" as="targetPoint" />
          </mxGeometry>
        </mxCell>
        <mxCell id="ZufFL4hHmm5P7ahXTJik-82" value="" style="edgeStyle=orthogonalEdgeStyle;html=1;endArrow=block;elbow=vertical;startArrow=none;endFill=1;strokeColor=#545B64;rounded=0;" edge="1" parent="1">
          <mxGeometry width="100" relative="1" as="geometry">
            <mxPoint x="280" y="440" as="sourcePoint" />
            <mxPoint x="250" y="330" as="targetPoint" />
            <Array as="points">
              <mxPoint x="280" y="350" />
              <mxPoint x="251" y="350" />
            </Array>
          </mxGeometry>
        </mxCell>
        <mxCell id="ZufFL4hHmm5P7ahXTJik-83" value="" style="edgeStyle=orthogonalEdgeStyle;html=1;endArrow=block;elbow=vertical;startArrow=none;endFill=1;strokeColor=#545B64;rounded=0;exitX=0.5;exitY=0;exitDx=0;exitDy=0;exitPerimeter=0;" edge="1" parent="1" source="ZufFL4hHmm5P7ahXTJik-15" target="ZufFL4hHmm5P7ahXTJik-60">
          <mxGeometry width="100" relative="1" as="geometry">
            <mxPoint x="340" y="310" as="sourcePoint" />
            <mxPoint x="440" y="310" as="targetPoint" />
          </mxGeometry>
        </mxCell>
        <mxCell id="ZufFL4hHmm5P7ahXTJik-84" value="Authentication" style="edgeLabel;html=1;align=center;verticalAlign=middle;resizable=0;points=[];" vertex="1" connectable="0" parent="ZufFL4hHmm5P7ahXTJik-83">
          <mxGeometry x="-0.175" relative="1" as="geometry">
            <mxPoint as="offset" />
          </mxGeometry>
        </mxCell>
        <mxCell id="ZufFL4hHmm5P7ahXTJik-85" value="" style="edgeStyle=orthogonalEdgeStyle;html=1;endArrow=block;elbow=vertical;startArrow=none;endFill=1;strokeColor=#545B64;rounded=0;entryX=0;entryY=0.5;entryDx=0;entryDy=0;entryPerimeter=0;" edge="1" parent="1" target="ZufFL4hHmm5P7ahXTJik-54">
          <mxGeometry width="100" relative="1" as="geometry">
            <mxPoint x="470" y="330" as="sourcePoint" />
            <mxPoint x="570" y="330" as="targetPoint" />
            <Array as="points">
              <mxPoint x="470" y="331" />
              <mxPoint x="531" y="331" />
              <mxPoint x="531" y="327" />
            </Array>
          </mxGeometry>
        </mxCell>
        <mxCell id="ZufFL4hHmm5P7ahXTJik-86" value="" style="edgeStyle=orthogonalEdgeStyle;html=1;endArrow=block;elbow=vertical;startArrow=none;endFill=1;strokeColor=#545B64;rounded=0;exitX=1;exitY=0.5;exitDx=0;exitDy=0;exitPerimeter=0;" edge="1" parent="1">
          <mxGeometry width="100" relative="1" as="geometry">
            <mxPoint x="628" y="354.75" as="sourcePoint" />
            <mxPoint x="860" y="220" as="targetPoint" />
            <Array as="points">
              <mxPoint x="628" y="327" />
              <mxPoint x="840" y="327" />
              <mxPoint x="840" y="220" />
              <mxPoint x="860" y="220" />
            </Array>
          </mxGeometry>
        </mxCell>
        <mxCell id="ZufFL4hHmm5P7ahXTJik-87" value="" style="edgeStyle=orthogonalEdgeStyle;html=1;endArrow=block;elbow=vertical;startArrow=none;endFill=1;strokeColor=#545B64;rounded=0;entryX=0;entryY=0.835;entryDx=0;entryDy=0;entryPerimeter=0;" edge="1" parent="1">
          <mxGeometry width="100" relative="1" as="geometry">
            <mxPoint x="620" y="326" as="sourcePoint" />
            <mxPoint x="860" y="483" as="targetPoint" />
            <Array as="points">
              <mxPoint x="620" y="327" />
              <mxPoint x="840" y="327" />
              <mxPoint x="840" y="483" />
            </Array>
          </mxGeometry>
        </mxCell>
        <mxCell id="ZufFL4hHmm5P7ahXTJik-92" value="" style="edgeStyle=orthogonalEdgeStyle;html=1;endArrow=block;elbow=vertical;startArrow=none;endFill=1;strokeColor=#545B64;rounded=0;entryX=-0.044;entryY=0.137;entryDx=0;entryDy=0;entryPerimeter=0;" edge="1" parent="1">
          <mxGeometry width="100" relative="1" as="geometry">
            <mxPoint x="1190" y="322" as="sourcePoint" />
            <mxPoint x="1386.04" y="203.93000000000006" as="targetPoint" />
            <Array as="points">
              <mxPoint x="1190" y="323" />
              <mxPoint x="1350" y="323" />
              <mxPoint x="1350" y="204" />
            </Array>
          </mxGeometry>
        </mxCell>
        <mxCell id="ZufFL4hHmm5P7ahXTJik-93" value="" style="edgeStyle=orthogonalEdgeStyle;html=1;endArrow=block;elbow=vertical;startArrow=none;endFill=1;strokeColor=#545B64;rounded=0;entryX=-0.033;entryY=0.842;entryDx=0;entryDy=0;entryPerimeter=0;" edge="1" parent="1">
          <mxGeometry width="100" relative="1" as="geometry">
            <mxPoint x="1190" y="322" as="sourcePoint" />
            <mxPoint x="1387.0300000000002" y="478.8800000000001" as="targetPoint" />
            <Array as="points">
              <mxPoint x="1190" y="323" />
              <mxPoint x="1350" y="323" />
              <mxPoint x="1350" y="479" />
            </Array>
          </mxGeometry>
        </mxCell>
        <mxCell id="ZufFL4hHmm5P7ahXTJik-94" value="" style="edgeStyle=orthogonalEdgeStyle;html=1;endArrow=block;elbow=vertical;startArrow=none;endFill=1;strokeColor=#545B64;rounded=0;entryX=0.1;entryY=0.5;entryDx=0;entryDy=0;entryPerimeter=0;" edge="1" parent="1" target="ZufFL4hHmm5P7ahXTJik-62">
          <mxGeometry width="100" relative="1" as="geometry">
            <mxPoint x="1350" y="323" as="sourcePoint" />
            <mxPoint x="1450" y="323" as="targetPoint" />
          </mxGeometry>
        </mxCell>
        <mxCell id="ZufFL4hHmm5P7ahXTJik-95" value="" style="outlineConnect=0;dashed=0;verticalLabelPosition=bottom;verticalAlign=top;align=center;html=1;shape=mxgraph.aws3.mobile_client;fillColor=#D2D3D3;gradientColor=none;" vertex="1" parent="1">
          <mxGeometry x="49.75" y="511.5" width="20.5" height="30" as="geometry" />
        </mxCell>
        <mxCell id="ZufFL4hHmm5P7ahXTJik-97" value="" style="edgeStyle=orthogonalEdgeStyle;html=1;endArrow=block;elbow=vertical;startArrow=block;startFill=1;endFill=1;strokeColor=#545B64;rounded=0;" edge="1" parent="1" target="ZufFL4hHmm5P7ahXTJik-2">
          <mxGeometry width="100" relative="1" as="geometry">
            <mxPoint x="60" y="230" as="sourcePoint" />
            <mxPoint x="160" y="230" as="targetPoint" />
          </mxGeometry>
        </mxCell>
        <mxCell id="ZufFL4hHmm5P7ahXTJik-98" value="" style="edgeStyle=orthogonalEdgeStyle;html=1;endArrow=block;elbow=vertical;startArrow=none;endFill=1;strokeColor=#545B64;rounded=0;" edge="1" parent="1">
          <mxGeometry width="100" relative="1" as="geometry">
            <mxPoint x="60" y="380" as="sourcePoint" />
            <mxPoint x="60" y="510" as="targetPoint" />
          </mxGeometry>
        </mxCell>
        <mxCell id="ZufFL4hHmm5P7ahXTJik-99" value="" style="edgeStyle=orthogonalEdgeStyle;html=1;endArrow=block;elbow=vertical;startArrow=block;startFill=1;endFill=1;strokeColor=#545B64;rounded=0;entryX=0.5;entryY=1;entryDx=0;entryDy=0;entryPerimeter=0;" edge="1" parent="1" source="ZufFL4hHmm5P7ahXTJik-95" target="ZufFL4hHmm5P7ahXTJik-15">
          <mxGeometry width="100" relative="1" as="geometry">
            <mxPoint x="70.25" y="526.5" as="sourcePoint" />
            <mxPoint x="170.25" y="526.5" as="targetPoint" />
          </mxGeometry>
        </mxCell>
        <mxCell id="ZufFL4hHmm5P7ahXTJik-101" value="" style="edgeStyle=orthogonalEdgeStyle;html=1;endArrow=none;elbow=vertical;startArrow=block;startFill=1;strokeColor=#545B64;rounded=0;exitX=0.855;exitY=0.145;exitDx=0;exitDy=0;exitPerimeter=0;" edge="1" parent="1" source="ZufFL4hHmm5P7ahXTJik-17">
          <mxGeometry width="100" relative="1" as="geometry">
            <mxPoint x="490" y="200" as="sourcePoint" />
            <mxPoint x="590" y="200" as="targetPoint" />
            <Array as="points">
              <mxPoint x="480" y="316" />
              <mxPoint x="480" y="200" />
            </Array>
          </mxGeometry>
        </mxCell>
        <mxCell id="ZufFL4hHmm5P7ahXTJik-102" value="" style="edgeStyle=orthogonalEdgeStyle;html=1;endArrow=none;elbow=vertical;startArrow=block;startFill=1;strokeColor=#545B64;rounded=0;exitX=0.855;exitY=0.855;exitDx=0;exitDy=0;exitPerimeter=0;" edge="1" parent="1" source="ZufFL4hHmm5P7ahXTJik-17">
          <mxGeometry width="100" relative="1" as="geometry">
            <mxPoint x="460" y="346" as="sourcePoint" />
            <mxPoint x="590" y="470" as="targetPoint" />
            <Array as="points">
              <mxPoint x="480" y="344" />
              <mxPoint x="480" y="470" />
              <mxPoint x="590" y="470" />
            </Array>
          </mxGeometry>
        </mxCell>
        <mxCell id="ZufFL4hHmm5P7ahXTJik-104" value="" style="edgeStyle=orthogonalEdgeStyle;html=1;endArrow=none;elbow=vertical;startArrow=block;startFill=1;strokeColor=#545B64;rounded=0;entryX=0.006;entryY=0.115;entryDx=0;entryDy=0;entryPerimeter=0;" edge="1" parent="1" source="ZufFL4hHmm5P7ahXTJik-27" target="ZufFL4hHmm5P7ahXTJik-67">
          <mxGeometry width="100" relative="1" as="geometry">
            <mxPoint x="82.5" y="70" as="sourcePoint" />
            <mxPoint x="733.5" y="196" as="targetPoint" />
          </mxGeometry>
        </mxCell>
      </root>
    </mxGraphModel>
  </diagram>
</mxfile>
